<svg xmlns="http://www.w3.org/2000/svg" width="16" height="16"><path fill="#0053a0" d="M15.969 6.851a1.156 1.156 0 0 0-.366-.751l-.01-.009-.004-.004a1.179 1.179 0 0 0-.79-.318h.001A8.38 8.38 0 0 0 8.327 8.43a8.368 8.368 0 0 0-2.214 6.539l.001.012a1.206 1.206 0 0 0 1.169 1.078h-.002a.952.952 0 0 0 .988-1.046v-.001a6.488 6.488 0 0 1 1.715-5.066 6.483 6.483 0 0 1 4.999-2.062l.011.001a.944.944 0 0 0 .975-1.031v-.001z"/><path fill="#0053a0" d="M2.518 14.954a12.225 12.225 0 0 1 3.435-8.999 12.224 12.224 0 0 1 9.006-3.737h.009a.996.996 0 0 0 1.014-1.04v-.001A1.096 1.096 0 0 0 14.889.132h.001a14.198 14.198 0 0 0-10.472 4.34 14.193 14.193 0 0 0-3.989 10.45v.007a1.098 1.098 0 0 0 1.074.995h-.001a.988.988 0 0 0 1.016-.971v.001z"/></svg>